[Header]
FileType HTR
DataType HTRS
FileVersion 1
NumSegments 22
NumFrames 4
DataFrameRate 24
EulerRotationOrder ZYX
CalibrationUnits mm
RotationUnits Degrees
GlobalAxisofGravity Y
BoneLengthAxis Y
ScaleFactor 1.0
[SegmentNames&Hierarchy]
reference	GLOBAL
Hips	reference
Spine	Hips
Spine1	Spine
Neck	Spine1
Head	Neck
LeftShoulder	Spine1
LeftArm	LeftShoulder
LeftForeArm	LeftArm
LeftHand	LeftForeArm
RightShoulder	Spine1
RightArm	RightShoulder
RightForeArm	RightArm
RightHand	RightForeArm
LeftUpLeg	Hips
LeftLeg	LeftUpLeg
LeftFoot	LeftLeg
LeftToeBase	LeftFoot
RightUpLeg	Hips
RightLeg	RightUpLeg
RightFoot	RightLeg
RightToeBase	RightFoot
[BasePosition]
reference	0	0	0	0	0	0	1
Hips	0	0	0	0	0	0	1
Spine	0	0	0	-0	-90	0	1
Spine1	0	0	0	0	0	0	1
Neck	0	0	0	82.64767223	-82.64767223	-90	1
Head	0	0	0	-0	-90	0	1
LeftShoulder	0	0	0	0	0	0	1
LeftArm	0	0	0	0	0	0	1
LeftForeArm	0	0	0	0	0	0	1
LeftHand	0	0	0	0	0	0	1
RightShoulder	0	0	0	0	-0	180	1
RightArm	0	0	0	0	-0	180	1
RightForeArm	0	0	0	0	-0	180	1
RightHand	0	0	0	0	-0	180	1
LeftUpLeg	0	0	0	-0	90	0	1
LeftLeg	0	0	0	-0	90	0	1
LeftFoot	0	0	0	-23.42853957	23.42853957	-90	1
LeftToeBase	0	0	0	0	-0	-90	1
RightUpLeg	0	0	0	-0	90	0	1
RightLeg	0	0	0	-0	90	0	1
RightFoot	0	0	0	-23.42853957	23.42853957	-90	1
RightToeBase	0	0	0	0	-0	-90	1
[reference]
23	0	0	0	0	-0	0	1.0
24	0	0	0	0	-0	0	1.0
25	0	0	0	0	-0	0	1.0
26	0	0	0	0	-0	0	1.0
[Hips]
23	4.886119843	0.005080000497	7.987010002	7.889054775	2.042109966	-105.6142883	1.0
24	4.886119843	0.005080000497	7.987010002	6.684364796	3.272301674	-109.7048874	1.0
25	4.886119843	0.005080000497	7.987010002	6.433540344	3.586554527	-111.4390106	1.0
26	4.886119843	0.005080000497	7.987010002	6.0711689	4.3786726	-113.8200912	1.0
[Spine]
23	0	0	0.7457100153	196.3257141	88.43955231	199.8345795	1.0
24	0	0	0.7457100153	92.05709076	88.13201904	94.7385025	1.0
25	0	0	0.7457100153	78.20480347	87.40203094	80.78923798	1.0
26	0	0	0.7457100153	70.75102997	86.08348083	73.45625305	1.0
[Spine1]
23	0	0	2.140589952	5.66103363	-3.437330723	-0.3631026447	1.0
24	0	0	2.140589952	5.204075813	-2.653436184	0.4443999231	1.0
25	0	0	2.140589952	4.885694027	-2.535872698	0.7441006303	1.0
26	0	0	2.140589952	4.535841942	-2.708492517	1.138549685	1.0
[Neck]
23	0	0	2.32246995	-126.4688187	100.0853729	-90.68811035	1.0
24	0	0	2.32246995	-122.7743378	100.4570389	-88.45346832	1.0
25	0	0	2.32246995	-120.9129333	100.6566391	-87.2819519	1.0
26	0	0	2.32246995	-115.338623	100.908905	-82.54281616	1.0
[Head]
23	0	-0.1818799973	1.409579992	-90.6240387	92.9055481	-89.11236572	1.0
24	0	-0.1818799973	1.409579992	-87.35246277	93.4333725	-85.62112427	1.0
25	0	-0.1818799973	1.409579992	-85.07537842	93.72225952	-83.39868164	1.0
26	0	-0.1818799973	1.409579992	-93.45572662	94.02682495	-92.40869141	1.0
[LeftShoulder]
23	0.3668199778	0.02662999928	1.946700096	-17.49788284	4.022747517	-16.63941002	1.0
24	0.3668199778	0.02662999928	1.946700096	-15.6987133	3.555588722	-15.83008194	1.0
25	0.3668199778	0.02662999928	1.946700096	-13.83899021	3.347692013	-15.32051086	1.0
26	0.3668199778	0.02662999928	1.946700096	-11.66207027	1.824640155	-14.17902565	1.0
[LeftArm]
23	1.140689969	0	0	61.16272354	68.17247009	16.42987823	1.0
24	1.140689969	0	0	64.6450882	62.65766144	27.23386955	1.0
25	1.140689969	0	0	63.27870178	59.8302002	29.56084061	1.0
26	1.140689969	0	0	64.61462402	56.2120285	33.96744919	1.0
[LeftForeArm]
23	2.749800205	0	0	-4.212615967	-3.079271317	-68.84362793	1.0
24	2.749800205	0	0	-3.485312462	2.252725124	-64.36308289	1.0
25	2.749800205	0	0	-4.082600594	5.750929832	-63.93963623	1.0
26	2.749800205	0	0	-4.841091156	9.698093414	-64.33989716	1.0
[LeftHand]
23	2.295179844	0	0	-4.159613609	-11.67338181	-20.87414742	1.0
24	2.295179844	0	0	0.1484890878	-11.33468628	-22.29332924	1.0
25	2.295179844	0	0	1.852244377	-11.24017239	-23.49080467	1.0
26	2.295179844	0	0	3.467827559	-10.55643654	-23.49265671	1.0
[RightShoulder]
23	-0.3601199985	0.02662999928	1.946700096	-2.365884542	3.744149685	-176.8752441	1.0
24	-0.3601199985	0.02662999928	1.946700096	-3.999921083	3.50837779	-175.9805603	1.0
25	-0.3601199985	0.02662999928	1.946700096	-4.848917007	3.523910999	-175.6074829	1.0
26	-0.3601199985	0.02662999928	1.946700096	-5.845872879	3.725965023	-174.7028503	1.0
[RightArm]
23	-1.140689969	0	0	54.46742249	-72.86904907	-196.85495	1.0
24	-1.140689969	0	0	50.85270691	-75.36759949	-181.9083099	1.0
25	-1.140689969	0	0	47.47349167	-75.6079483	-173.4620514	1.0
26	-1.140689969	0	0	40.71099472	-74.44186401	-161.269989	1.0
[RightForeArm]
23	-2.749800205	0	0	16.10066605	8.364426613	-121.8718414	1.0
24	-2.749800205	0	0	20.07216644	14.73620796	-115.6402435	1.0
25	-2.749800205	0	0	22.02175903	16.71749496	-111.733551	1.0
26	-2.749800205	0	0	25.11811256	17.62163734	-104.0242462	1.0
[RightHand]
23	-2.295179844	0	0	16.98511887	22.83971405	-153.1265411	1.0
24	-2.295179844	0	0	16.49551392	23.94204712	-153.2366028	1.0
25	-2.295179844	0	0	16.3978405	24.00974083	-153.4141998	1.0
26	-2.295179844	0	0	16.70232201	23.4370327	-154.4459229	1.0
[LeftUpLeg]
23	0.9094099998	0	0	233.5161743	-86.09036255	-255.1096802	1.0
24	0.9094099998	0	0	252.0446625	-78.65103912	-273.1974487	1.0
25	0.9094099998	0	0	250.0047913	-77.01636505	-271.269928	1.0
26	0.9094099998	0	0	242.766037	-76.35413361	-263.9736633	1.0
[LeftLeg]
23	0	0	-4.498080254	82.42564392	-58.92070389	-38.33460999	1.0
24	0	0	-4.498080254	88.26441956	-66.70626068	-44.39356232	1.0
25	0	0	-4.498080254	88.56689453	-67.37423706	-45.1989212	1.0
26	0	0	-4.498080254	84.67463684	-63.25179291	-42.80732727	1.0
[LeftFoot]
23	0	0	-3.729400158	-69.89133453	1.93885076	122.1256104	1.0
24	0	0	-3.729400158	-68.39328766	-4.096585751	116.2433472	1.0
25	0	0	-3.729400158	-67.96257782	-4.083891392	115.1642227	1.0
26	0	0	-3.729400158	-68.49913025	-2.349190474	121.6235428	1.0
[LeftToeBase]
23	0	-1.364109993	-0.5911099911	-9.999999975e-007	0	0	1.0
24	0	-1.364109993	-0.5911099911	-9.999999975e-007	0	0	1.0
25	0	-1.364109993	-0.5911099911	-9.999999975e-007	0	0	1.0
26	0	-1.364109993	-0.5911099911	-9.999999975e-007	0	0	1.0
[RightUpLeg]
23	-0.9094099998	0	0	-69.85749817	-103.8103638	32.81523132	1.0
24	-0.9094099998	0	0	-67.43896484	-105.9226608	33.10834122	1.0
25	-0.9094099998	0	0	-67.70510864	-106.5743027	34.72814941	1.0
26	-0.9094099998	0	0	-67.50547791	-107.528244	37.44818878	1.0
[RightLeg]
23	0	0	-4.498080254	61.62779999	-63.67795563	-12.93278313	1.0
24	0	0	-4.498080254	60.72993469	-64.14363098	-7.045853138	1.0
25	0	0	-4.498080254	57.87519073	-66.49459076	-2.072203398	1.0
26	0	0	-4.498080254	53.00738907	-69.6585083	4.512427807	1.0
[RightFoot]
23	0	0	-3.729400158	-59.49343491	-23.6048317	113.6430435	1.0
24	0	0	-3.729400158	-57.17430878	-23.81091881	110.0906372	1.0
25	0	0	-3.729400158	-56.14453125	-24.71516228	107.5897827	1.0
26	0	0	-3.729400158	-55.14234161	-25.7743988	104.5751648	1.0
[RightToeBase]
23	0	-1.364109993	-0.5911099911	-9.999999975e-007	-9.999999975e-007	-9.999999975e-007	1.0
24	0	-1.364109993	-0.5911099911	-9.999999975e-007	-9.999999975e-007	-9.999999975e-007	1.0
25	0	-1.364109993	-0.5911099911	-9.999999975e-007	-9.999999975e-007	-9.999999975e-007	1.0
26	0	-1.364109993	-0.5911099911	-9.999999975e-007	-9.999999975e-007	-9.999999975e-007	1.0
[EndOfFile]
